<svg xmlns="http://www.w3.org/2000/svg" xmlns:xlink="http://www.w3.org/1999/xlink" width="800" zoomAndPan="magnify" viewBox="0 0 600 599.999999" height="800" preserveAspectRatio="xMidYMid meet" version="1.0"><defs><g/><clipPath id="8a97e790cf"><rect x="0" width="45" y="0" height="35"/></clipPath><clipPath id="40eb316580"><path d="M 0.078125 7 L 14 7 L 14 28 L 0.078125 28 Z M 0.078125 7 " clip-rule="nonzero"/></clipPath><clipPath id="8fdddfadd9"><rect x="0" width="45" y="0" height="36"/></clipPath><clipPath id="c77a5dfe19"><rect x="0" width="36" y="0" height="53"/></clipPath><clipPath id="9e4142c1b7"><rect x="0" width="33" y="0" height="53"/></clipPath><clipPath id="a6925050eb"><rect x="0" width="34" y="0" height="53"/></clipPath></defs><rect x="-60" width="720" fill="#ffffff" y="-60" height="719.999999" fill-opacity="1"/><rect x="-60" width="720" fill="#ffffff" y="-60" height="719.999999" fill-opacity="1"/><path stroke-linecap="butt" transform="matrix(0.743486, -0.0986324, 0.0986324, 0.743486, 90.16575, 472.111584)" fill="none" stroke-linejoin="miter" d="M 0.00256029 2.498256 L 564.167994 2.498848 " stroke="#000000" stroke-width="5" stroke-opacity="1" stroke-miterlimit="4"/><path stroke-linecap="butt" transform="matrix(0.343828, 0.666545, -0.666545, 0.343828, 367.213667, 137.694081)" fill="none" stroke-linejoin="miter" d="M 0.000965766 2.501142 L 419.732568 2.499674 " stroke="#000000" stroke-width="5" stroke-opacity="1" stroke-miterlimit="4"/><path stroke-linecap="butt" transform="matrix(0.475656, -0.579872, 0.579872, 0.475656, 88.961123, 472.778472)" fill="none" stroke-linejoin="miter" d="M -0.00172179 2.500296 L 578.433602 2.501586 " stroke="#000000" stroke-width="5" stroke-opacity="1" stroke-miterlimit="4"/><g transform="matrix(1, 0, 0, 1, 142, 418)"><g clip-path="url(#8a97e790cf)"><g fill="#000000" fill-opacity="1"><g transform="translate(0.177948, 26.64584)"><g><path d="M 1.609375 -13.390625 C 1.628906 -13.429688 1.796875 -14.492188 2.109375 -16.578125 L 2.578125 -19.71875 C 2.578125 -19.75 2.769531 -19.765625 3.15625 -19.765625 L 3.75 -19.765625 L 3.75 -19.65625 C 3.75 -19.457031 3.894531 -19.289062 4.1875 -19.15625 C 4.476562 -19.019531 4.988281 -18.929688 5.71875 -18.890625 C 6.445312 -18.859375 8.085938 -18.84375 10.640625 -18.84375 L 14.1875 -18.84375 L 14.1875 -17.703125 L 12.203125 -14.96875 C 11.910156 -14.5625 11.578125 -14.109375 11.203125 -13.609375 C 10.828125 -13.117188 10.539062 -12.734375 10.34375 -12.453125 C 10.15625 -12.179688 10.039062 -12.019531 10 -11.96875 C 8.988281 -10.382812 8.382812 -8.265625 8.1875 -5.609375 C 8.113281 -4.816406 8.066406 -3.726562 8.046875 -2.34375 C 8.046875 -2.070312 8.039062 -1.789062 8.03125 -1.5 C 8.019531 -1.21875 8.015625 -0.988281 8.015625 -0.8125 L 8.015625 -0.5625 C 7.929688 -0.226562 7.738281 0.0507812 7.4375 0.28125 C 7.132812 0.519531 6.8125 0.640625 6.46875 0.640625 C 6 0.640625 5.617188 0.476562 5.328125 0.15625 C 5.046875 -0.164062 4.90625 -0.609375 4.90625 -1.171875 C 4.90625 -1.460938 4.945312 -2.019531 5.03125 -2.84375 C 5.320312 -5.46875 6.226562 -8.109375 7.75 -10.765625 C 8.144531 -11.390625 8.960938 -12.566406 10.203125 -14.296875 L 11.546875 -16.140625 L 8.828125 -16.140625 C 5.441406 -16.140625 3.660156 -16.082031 3.484375 -15.96875 C 3.398438 -15.925781 3.289062 -15.710938 3.15625 -15.328125 C 3.039062 -14.929688 2.941406 -14.472656 2.859375 -13.953125 C 2.828125 -13.617188 2.800781 -13.429688 2.78125 -13.390625 L 2.78125 -13.3125 L 1.609375 -13.3125 Z M 1.609375 -13.390625 "/></g></g></g><g fill="#000000" fill-opacity="1"><g transform="translate(14.800319, 26.64584)"><g><path d="M 3.125 -6.265625 C 3.59375 -6.265625 3.988281 -6.101562 4.3125 -5.78125 C 4.632812 -5.457031 4.796875 -5.050781 4.796875 -4.5625 C 4.796875 -4.113281 4.628906 -3.734375 4.296875 -3.421875 C 3.960938 -3.109375 3.59375 -2.953125 3.1875 -2.953125 L 2.984375 -2.953125 L 3.078125 -2.8125 C 3.367188 -2.1875 3.816406 -1.664062 4.421875 -1.25 C 5.023438 -0.84375 5.734375 -0.640625 6.546875 -0.640625 C 7.929688 -0.640625 8.925781 -1.226562 9.53125 -2.40625 C 9.90625 -3.125 10.09375 -4.367188 10.09375 -6.140625 C 10.09375 -8.148438 9.828125 -9.503906 9.296875 -10.203125 C 8.796875 -10.847656 8.171875 -11.171875 7.421875 -11.171875 C 5.898438 -11.171875 4.753906 -10.507812 3.984375 -9.1875 C 3.898438 -9.050781 3.820312 -8.96875 3.75 -8.9375 C 3.6875 -8.90625 3.546875 -8.890625 3.328125 -8.890625 C 3.003906 -8.890625 2.820312 -8.945312 2.78125 -9.0625 C 2.738281 -9.144531 2.71875 -10.851562 2.71875 -14.1875 C 2.71875 -14.769531 2.710938 -15.460938 2.703125 -16.265625 C 2.691406 -17.066406 2.6875 -17.570312 2.6875 -17.78125 C 2.6875 -18.875 2.742188 -19.421875 2.859375 -19.421875 C 2.898438 -19.460938 2.941406 -19.484375 2.984375 -19.484375 L 3.515625 -19.3125 C 4.773438 -18.800781 6.070312 -18.546875 7.40625 -18.546875 C 8.789062 -18.546875 10.113281 -18.816406 11.375 -19.359375 C 11.53125 -19.441406 11.660156 -19.484375 11.765625 -19.484375 C 11.921875 -19.484375 12 -19.304688 12 -18.953125 L 12 -18.578125 C 10.414062 -16.679688 8.414062 -15.734375 6 -15.734375 C 5.394531 -15.734375 4.847656 -15.789062 4.359375 -15.90625 L 4.0625 -15.96875 L 4.0625 -10.9375 C 5.175781 -11.832031 6.316406 -12.28125 7.484375 -12.28125 C 7.859375 -12.28125 8.257812 -12.234375 8.6875 -12.140625 C 9.988281 -11.804688 11.054688 -11.0625 11.890625 -9.90625 C 12.722656 -8.757812 13.140625 -7.414062 13.140625 -5.875 C 13.140625 -4.101562 12.519531 -2.570312 11.28125 -1.28125 C 10.039062 0 8.515625 0.640625 6.703125 0.640625 C 5.472656 0.640625 4.425781 0.300781 3.5625 -0.375 C 3.195312 -0.613281 2.878906 -0.9375 2.609375 -1.34375 C 2.015625 -2.050781 1.640625 -2.921875 1.484375 -3.953125 C 1.484375 -4.003906 1.476562 -4.09375 1.46875 -4.21875 C 1.46875 -4.351562 1.46875 -4.445312 1.46875 -4.5 C 1.46875 -5.050781 1.625 -5.484375 1.9375 -5.796875 C 2.25 -6.109375 2.644531 -6.265625 3.125 -6.265625 Z M 3.125 -6.265625 "/></g></g></g><g fill="#000000" fill-opacity="1"><g transform="translate(29.422689, 26.64584)"><g><path d="M 4.328125 -18.921875 C 4.484375 -19.484375 4.8125 -19.953125 5.3125 -20.328125 C 5.820312 -20.710938 6.429688 -20.90625 7.140625 -20.90625 C 8.617188 -20.90625 9.613281 -20.375 10.125 -19.3125 C 10.238281 -19.050781 10.296875 -18.742188 10.296875 -18.390625 C 10.296875 -18.023438 10.238281 -17.71875 10.125 -17.46875 C 9.613281 -16.394531 8.664062 -15.859375 7.28125 -15.859375 C 6.519531 -15.859375 5.875 -16.039062 5.34375 -16.40625 C 4.820312 -16.78125 4.484375 -17.257812 4.328125 -17.84375 C 4.304688 -17.914062 4.296875 -18.09375 4.296875 -18.375 C 4.296875 -18.664062 4.304688 -18.847656 4.328125 -18.921875 Z M 7.3125 -16.9375 C 8.03125 -16.9375 8.515625 -17.023438 8.765625 -17.203125 C 9.023438 -17.390625 9.15625 -17.78125 9.15625 -18.375 C 9.15625 -19.164062 8.851562 -19.640625 8.25 -19.796875 C 8.15625 -19.816406 7.875 -19.828125 7.40625 -19.828125 C 7.300781 -19.828125 7.1875 -19.832031 7.0625 -19.84375 C 6.9375 -19.851562 6.863281 -19.859375 6.84375 -19.859375 C 6.351562 -19.859375 6 -19.742188 5.78125 -19.515625 C 5.570312 -19.296875 5.46875 -18.921875 5.46875 -18.390625 C 5.46875 -17.828125 5.578125 -17.445312 5.796875 -17.25 C 6.023438 -17.039062 6.53125 -16.9375 7.3125 -16.9375 Z M 7.3125 -16.9375 "/></g></g></g></g></g><g transform="matrix(1, 0, 0, 1, 334, 190)"><g clip-path="url(#8fdddfadd9)"><g clip-path="url(#40eb316580)"><g fill="#000000" fill-opacity="1"><g transform="translate(0.138697, 27.070566)"><g><path d="M 13.515625 0 C 13.242188 -0.0625 11.984375 -0.09375 9.734375 -0.09375 C 7.398438 -0.09375 6.097656 -0.0625 5.828125 0 L 5.5625 0 L 5.5625 -1.34375 L 6.46875 -1.34375 C 7.300781 -1.363281 7.816406 -1.410156 8.015625 -1.484375 C 8.171875 -1.523438 8.285156 -1.625 8.359375 -1.78125 C 8.378906 -1.820312 8.390625 -2.347656 8.390625 -3.359375 L 8.390625 -4.828125 L 0.8125 -4.828125 L 0.8125 -6.171875 L 5.234375 -12.921875 C 8.222656 -17.453125 9.734375 -19.726562 9.765625 -19.75 C 9.804688 -19.78125 10.015625 -19.796875 10.390625 -19.796875 L 10.90625 -19.796875 L 11.078125 -19.625 L 11.078125 -6.171875 L 13.78125 -6.171875 L 13.78125 -4.828125 L 11.078125 -4.828125 L 11.078125 -3.328125 C 11.078125 -2.535156 11.082031 -2.066406 11.09375 -1.921875 C 11.101562 -1.785156 11.160156 -1.671875 11.265625 -1.578125 C 11.421875 -1.441406 11.972656 -1.363281 12.921875 -1.34375 L 13.78125 -1.34375 L 13.78125 0 Z M 8.5625 -6.171875 L 8.5625 -15.9375 L 2.171875 -6.203125 L 5.359375 -6.171875 Z M 8.5625 -6.171875 "/></g></g></g></g><g fill="#000000" fill-opacity="1"><g transform="translate(14.761068, 27.070566)"><g><path d="M 5.03125 -9.796875 C 4.070312 -10.421875 3.332031 -11.070312 2.8125 -11.75 C 2.300781 -12.4375 2.046875 -13.335938 2.046875 -14.453125 C 2.046875 -15.285156 2.203125 -15.988281 2.515625 -16.5625 C 2.941406 -17.4375 3.566406 -18.140625 4.390625 -18.671875 C 5.222656 -19.210938 6.175781 -19.484375 7.25 -19.484375 C 8.582031 -19.484375 9.734375 -19.132812 10.703125 -18.4375 C 11.679688 -17.75 12.285156 -16.859375 12.515625 -15.765625 C 12.535156 -15.648438 12.546875 -15.414062 12.546875 -15.0625 C 12.546875 -14.632812 12.523438 -14.34375 12.484375 -14.1875 C 12.191406 -12.894531 11.304688 -11.785156 9.828125 -10.859375 L 9.484375 -10.625 C 10.566406 -9.875 11.128906 -9.484375 11.171875 -9.453125 C 12.640625 -8.273438 13.375 -6.820312 13.375 -5.09375 C 13.375 -3.507812 12.789062 -2.15625 11.625 -1.03125 C 10.46875 0.0820312 9.019531 0.640625 7.28125 0.640625 C 4.882812 0.640625 3.117188 -0.234375 1.984375 -1.984375 C 1.492188 -2.691406 1.25 -3.539062 1.25 -4.53125 C 1.25 -6.65625 2.507812 -8.410156 5.03125 -9.796875 Z M 10.859375 -15 C 10.859375 -15.84375 10.582031 -16.554688 10.03125 -17.140625 C 9.488281 -17.722656 8.828125 -18.09375 8.046875 -18.25 C 7.910156 -18.269531 7.585938 -18.28125 7.078125 -18.28125 C 6.046875 -18.28125 5.175781 -17.929688 4.46875 -17.234375 C 3.988281 -16.785156 3.75 -16.25 3.75 -15.625 C 3.75 -14.78125 4.097656 -14.113281 4.796875 -13.625 C 4.890625 -13.53125 5.515625 -13.125 6.671875 -12.40625 L 8.359375 -11.296875 C 8.378906 -11.304688 8.503906 -11.382812 8.734375 -11.53125 C 8.972656 -11.6875 9.148438 -11.820312 9.265625 -11.9375 C 10.328125 -12.769531 10.859375 -13.789062 10.859375 -15 Z M 3.125 -4.59375 C 3.125 -3.4375 3.539062 -2.484375 4.375 -1.734375 C 5.21875 -0.984375 6.195312 -0.609375 7.3125 -0.609375 C 8.113281 -0.609375 8.835938 -0.773438 9.484375 -1.109375 C 10.140625 -1.441406 10.632812 -1.875 10.96875 -2.40625 C 11.300781 -2.90625 11.46875 -3.4375 11.46875 -4 C 11.46875 -4.84375 11.125 -5.585938 10.4375 -6.234375 C 10.28125 -6.390625 9.472656 -6.941406 8.015625 -7.890625 C 7.742188 -8.066406 7.445312 -8.257812 7.125 -8.46875 C 6.800781 -8.675781 6.550781 -8.835938 6.375 -8.953125 L 6.140625 -9.09375 L 5.796875 -8.921875 C 4.566406 -8.117188 3.753906 -7.144531 3.359375 -6 C 3.203125 -5.488281 3.125 -5.019531 3.125 -4.59375 Z M 3.125 -4.59375 "/></g></g></g><g fill="#000000" fill-opacity="1"><g transform="translate(29.383438, 27.070566)"><g><path d="M 4.328125 -18.921875 C 4.484375 -19.484375 4.8125 -19.953125 5.3125 -20.328125 C 5.820312 -20.710938 6.429688 -20.90625 7.140625 -20.90625 C 8.617188 -20.90625 9.613281 -20.375 10.125 -19.3125 C 10.238281 -19.050781 10.296875 -18.742188 10.296875 -18.390625 C 10.296875 -18.023438 10.238281 -17.71875 10.125 -17.46875 C 9.613281 -16.394531 8.664062 -15.859375 7.28125 -15.859375 C 6.519531 -15.859375 5.875 -16.039062 5.34375 -16.40625 C 4.820312 -16.78125 4.484375 -17.257812 4.328125 -17.84375 C 4.304688 -17.914062 4.296875 -18.09375 4.296875 -18.375 C 4.296875 -18.664062 4.304688 -18.847656 4.328125 -18.921875 Z M 7.3125 -16.9375 C 8.03125 -16.9375 8.515625 -17.023438 8.765625 -17.203125 C 9.023438 -17.390625 9.15625 -17.78125 9.15625 -18.375 C 9.15625 -19.164062 8.851562 -19.640625 8.25 -19.796875 C 8.15625 -19.816406 7.875 -19.828125 7.40625 -19.828125 C 7.300781 -19.828125 7.1875 -19.832031 7.0625 -19.84375 C 6.9375 -19.851562 6.863281 -19.859375 6.84375 -19.859375 C 6.351562 -19.859375 6 -19.742188 5.78125 -19.515625 C 5.570312 -19.296875 5.46875 -18.921875 5.46875 -18.390625 C 5.46875 -17.828125 5.578125 -17.445312 5.796875 -17.25 C 6.023438 -17.039062 6.53125 -16.9375 7.3125 -16.9375 Z M 7.3125 -16.9375 "/></g></g></g></g></g><g transform="matrix(1, 0, 0, 1, 41, 465)"><g clip-path="url(#c77a5dfe19)"><g fill="#000000" fill-opacity="1"><g transform="translate(0.691839, 40.496278)"><g><path d="M 11.1875 0 C 10.65625 -0.0820312 8.972656 -0.125 6.140625 -0.125 C 3.535156 -0.125 2.054688 -0.0820312 1.703125 0 L 1.40625 0 L 1.40625 -2.015625 L 2.0625 -2.015625 C 4.164062 -2.109375 5.507812 -2.722656 6.09375 -3.859375 C 6.125 -3.941406 6.898438 -6.242188 8.421875 -10.765625 C 9.941406 -15.285156 11.453125 -19.789062 12.953125 -24.28125 C 14.460938 -28.769531 15.234375 -31.023438 15.265625 -31.046875 C 15.347656 -31.285156 15.625 -31.40625 16.09375 -31.40625 L 16.484375 -31.40625 C 17.078125 -31.375 17.429688 -31.269531 17.546875 -31.09375 C 17.578125 -31.0625 19 -26.878906 21.8125 -18.546875 C 24.632812 -10.210938 26.382812 -5.007812 27.0625 -2.9375 C 27.144531 -2.757812 27.25 -2.613281 27.375 -2.5 C 27.6875 -2.207031 28.601562 -2.046875 30.125 -2.015625 L 31.453125 -2.015625 L 31.453125 0 L 31.046875 0 C 30.609375 -0.0820312 28.753906 -0.125 25.484375 -0.125 C 21.710938 -0.125 19.609375 -0.0820312 19.171875 0 L 18.734375 0 L 18.734375 -2.015625 L 19.296875 -2.015625 C 21.347656 -2.015625 22.375 -2.28125 22.375 -2.8125 C 22.375 -2.863281 22.019531 -3.941406 21.3125 -6.046875 L 20.265625 -9.171875 L 10.046875 -9.171875 L 9.171875 -6.578125 C 8.585938 -4.847656 8.296875 -3.898438 8.296875 -3.734375 C 8.296875 -3.585938 8.335938 -3.453125 8.421875 -3.328125 C 8.597656 -2.953125 8.96875 -2.640625 9.53125 -2.390625 C 10.101562 -2.140625 10.710938 -2.015625 11.359375 -2.015625 L 11.578125 -2.015625 L 11.578125 0 Z M 18.25 -15.21875 C 17.394531 -17.757812 16.648438 -19.96875 16.015625 -21.84375 L 15.125 -24.4375 L 12.9375 -17.84375 L 10.703125 -11.234375 C 10.703125 -11.203125 12.175781 -11.1875 15.125 -11.1875 L 19.609375 -11.1875 Z M 18.25 -15.21875 "/></g></g></g></g></g><g transform="matrix(1, 0, 0, 1, 349, 82)"><g clip-path="url(#9e4142c1b7)"><g fill="#000000" fill-opacity="1"><g transform="translate(1.018276, 39.920615)"><g><path d="M 5.75 -27.28125 C 5.457031 -27.570312 5.171875 -27.742188 4.890625 -27.796875 C 4.609375 -27.859375 3.867188 -27.90625 2.671875 -27.9375 L 1.234375 -27.9375 L 1.234375 -29.953125 L 10.046875 -29.953125 C 15.921875 -29.921875 19.050781 -29.878906 19.4375 -29.828125 C 21.007812 -29.566406 22.296875 -29.140625 23.296875 -28.546875 C 24.984375 -27.585938 26.164062 -26.363281 26.84375 -24.875 C 27.195312 -24.082031 27.375 -23.273438 27.375 -22.453125 C 27.375 -20.960938 26.769531 -19.59375 25.5625 -18.34375 C 24.363281 -17.101562 22.800781 -16.253906 20.875 -15.796875 L 20.4375 -15.65625 C 22.488281 -15.425781 24.25 -14.738281 25.71875 -13.59375 C 27.195312 -12.457031 28.128906 -11.007812 28.515625 -9.25 C 28.535156 -9.070312 28.546875 -8.722656 28.546875 -8.203125 C 28.546875 -7.523438 28.519531 -7.070312 28.46875 -6.84375 C 28.082031 -5.113281 27.171875 -3.632812 25.734375 -2.40625 C 24.304688 -1.175781 22.582031 -0.414062 20.5625 -0.125 C 20.1875 -0.0703125 16.867188 -0.03125 10.609375 0 L 1.234375 0 L 1.234375 -2.015625 L 2.671875 -2.015625 C 3.867188 -2.046875 4.609375 -2.085938 4.890625 -2.140625 C 5.171875 -2.203125 5.457031 -2.378906 5.75 -2.671875 Z M 22.40625 -22.5 C 22.40625 -23.875 22.019531 -25.054688 21.25 -26.046875 C 20.476562 -27.046875 19.476562 -27.660156 18.25 -27.890625 C 18.21875 -27.890625 18.019531 -27.890625 17.65625 -27.890625 C 17.289062 -27.890625 16.820312 -27.894531 16.25 -27.90625 C 15.675781 -27.925781 15.125 -27.9375 14.59375 -27.9375 C 14.070312 -27.9375 13.523438 -27.925781 12.953125 -27.90625 C 12.390625 -27.894531 11.914062 -27.890625 11.53125 -27.890625 C 11.15625 -27.890625 10.9375 -27.890625 10.875 -27.890625 C 10.5 -27.859375 10.265625 -27.742188 10.171875 -27.546875 C 10.085938 -27.429688 10.046875 -25.546875 10.046875 -21.890625 L 10.046875 -16.40625 L 13.6875 -16.40625 L 17.375 -16.453125 L 17.8125 -16.53125 C 17.894531 -16.5625 18.039062 -16.609375 18.25 -16.671875 L 18.515625 -16.75 C 19.648438 -17.164062 20.582031 -17.875 21.3125 -18.875 C 22.039062 -19.882812 22.40625 -21.09375 22.40625 -22.5 Z M 23.546875 -8.25 C 23.546875 -9.914062 23.109375 -11.332031 22.234375 -12.5 C 21.359375 -13.664062 20.234375 -14.410156 18.859375 -14.734375 L 14.4375 -14.78125 L 10.046875 -14.78125 L 10.046875 -8.765625 C 10.046875 -4.703125 10.0625 -2.644531 10.09375 -2.59375 C 10.144531 -2.445312 10.203125 -2.34375 10.265625 -2.28125 C 10.441406 -2.132812 11.90625 -2.0625 14.65625 -2.0625 L 16.796875 -2.0625 C 18.023438 -2.0625 18.90625 -2.148438 19.4375 -2.328125 C 20.6875 -2.734375 21.679688 -3.476562 22.421875 -4.5625 C 23.171875 -5.644531 23.546875 -6.875 23.546875 -8.25 Z M 23.546875 -8.25 "/></g></g></g></g></g><g transform="matrix(1, 0, 0, 1, 526, 409)"><g clip-path="url(#a6925050eb)"><g fill="#000000" fill-opacity="1"><g transform="translate(0.628767, 40.215342)"><g><path d="M 28.953125 -11.265625 L 29.203125 -11.015625 L 29.203125 -10.34375 C 29.054688 -7.71875 28.191406 -5.394531 26.609375 -3.375 C 25.035156 -1.351562 23.007812 -0.0234375 20.53125 0.609375 C 19.675781 0.816406 18.722656 0.921875 17.671875 0.921875 C 16.585938 0.921875 15.664062 0.832031 14.90625 0.65625 C 11.632812 0.0078125 8.878906 -1.535156 6.640625 -3.984375 C 4.410156 -6.441406 3.03125 -9.484375 2.5 -13.109375 C 2.46875 -13.378906 2.453125 -14.007812 2.453125 -15 C 2.453125 -15.96875 2.46875 -16.597656 2.5 -16.890625 C 3 -20.453125 4.375 -23.46875 6.625 -25.9375 C 8.875 -28.414062 11.632812 -29.988281 14.90625 -30.65625 C 15.84375 -30.832031 16.59375 -30.921875 17.15625 -30.921875 C 17.207031 -30.921875 17.320312 -30.910156 17.5 -30.890625 C 17.675781 -30.878906 17.804688 -30.875 17.890625 -30.875 C 18.597656 -30.875 19.097656 -30.847656 19.390625 -30.796875 C 21.523438 -30.410156 23.378906 -29.441406 24.953125 -27.890625 L 25.53125 -27.375 L 26.84375 -29.078125 C 27.632812 -30.160156 28.085938 -30.757812 28.203125 -30.875 C 28.234375 -30.875 28.289062 -30.878906 28.375 -30.890625 C 28.46875 -30.910156 28.554688 -30.921875 28.640625 -30.921875 C 28.847656 -30.921875 29.035156 -30.832031 29.203125 -30.65625 L 29.203125 -18.375 L 28.953125 -18.109375 L 27.453125 -18.109375 C 27.273438 -18.285156 27.175781 -18.535156 27.15625 -18.859375 C 26.882812 -21.253906 26.175781 -23.328125 25.03125 -25.078125 C 23.894531 -26.835938 22.507812 -27.992188 20.875 -28.546875 C 20.320312 -28.753906 19.59375 -28.859375 18.6875 -28.859375 C 15.644531 -28.859375 13.097656 -27.835938 11.046875 -25.796875 C 8.742188 -23.484375 7.59375 -19.882812 7.59375 -15 C 7.59375 -11.457031 8.144531 -8.664062 9.25 -6.625 C 10.15625 -4.894531 11.445312 -3.53125 13.125 -2.53125 C 14.8125 -1.539062 16.691406 -1.046875 18.765625 -1.046875 C 20.898438 -1.046875 22.753906 -1.8125 24.328125 -3.34375 C 25.910156 -4.882812 26.878906 -6.691406 27.234375 -8.765625 C 27.378906 -9.503906 27.453125 -10.148438 27.453125 -10.703125 C 27.453125 -10.910156 27.539062 -11.097656 27.71875 -11.265625 Z M 28.953125 -11.265625 "/></g></g></g></g></g></svg>
