<svg version="1.2" xmlns="http://www.w3.org/2000/svg" viewBox="0 0 1416 450" width="1416" height="450">
	<title>thelosticker (1)</title>
	<style>
		.s0 { fill: #2563eb } 
	</style>
	<g id="Folder 1">
		<path id="Path 1" fill-rule="evenodd" class="s0" d="m338.8 43.1c3 0.2 6.7 0.9 8.1 1.8 1.5 0.8 3.6 2.1 4.7 3 1 1 2.8 3.2 3.9 5 1.3 2.6 1.8 5 1.8 9 0 4.8-0.4 6.5-2.5 9.8-1.4 2.3-4.6 6.1-7 8.4-2.5 2.5-7.1 6.2-10.3 8.4-3.3 2.1-8.7 5.2-12.3 7-3.5 1.7-8 3.6-10.2 4.1-2 0.6-3.8 1.4-3.8 1.7 0 0.4-1 1.9-2.4 3.5-1.5 1.4-4.3 4.9-6.6 7.6-2.3 2.7-5.3 6.4-6.8 8-1.4 1.7-2.9 3.6-3.3 4.3-0.5 0.8 0 1.8 1.3 2.8 1.1 0.9 4.8 3.9 8.3 6.7 3.5 2.8 9 7.9 12.2 11.3 3.1 3.4 7.4 8.5 9.4 11.2 2 2.7 4.8 6.4 5.9 8.1 1.2 1.7 3.9 6.5 6.1 10.4 2.1 4 5.3 10.6 7 14.9 1.8 4.3 4.2 11.6 5.4 16.3 1.2 4.7 2.8 11.4 3.4 14.9 0.8 3.8 1.2 12.8 1.1 22.6 0 13.7-0.3 17.9-2.3 27.1-1.4 6-3.4 14.1-4.8 18.1-1.3 4-4.5 11.6-7.2 17.1-2.6 5.5-7.2 13.6-10.3 18.1-2.9 4.6-6.2 9-8.6 12.3h11.7c6.4 0 15.9 0.6 21.3 1.2 5.2 0.7 11.8 2 14.6 2.7 2.9 0.8 7.1 2.4 9.5 3.4 2.4 1.2 5.9 3.3 7.9 4.9 2 1.5 4.7 5 6.1 7.7 1.8 3.5 2.5 6.3 2.5 9.9 0 3.4-0.7 6.3-2.2 9.5-1.2 2.4-4.1 6.2-6.3 8.3-2.2 2.2-6.6 5.1-9.6 6.5-2.9 1.6-7.1 3.4-9.2 4-2.2 0.8-7.3 2.1-11.5 3.1-4.3 1-11 2.3-15 2.8-4 0.6-10.6 1.5-14.9 1.9-4.3 0.5-14.9 0.9-23.8 0.9-8.7 0-21.1-0.4-27.4-0.9-6.5-0.4-15.3-1.3-19.7-1.9-4.5-0.5-10.5-1.3-13.1-1.8-2.8-0.5-7-1.2-9.5-1.7-2.4-0.6-12.9-2.6-23.1-4.7-10.2-2-24.3-4.9-31.6-6.6-9.6-2.2-17.4-3.3-28.9-4.1-12.4-0.9-18.7-0.9-28.9-0.1-7.3 0.7-17.1 2-21.7 3-4.7 1-10.6 2.5-13.2 3.5-2.3 0.7-6.6 2.5-9.2 4-2.6 1.2-5.9 2.2-7.4 2.2-1.9 0-3.3-0.6-4.6-2.4-1-1.5-1.9-3.3-1.8-4.1 0-0.9 1.1-2.7 2.6-4.1 1.3-1.3 4.9-3.6 7.9-5.1 2.9-1.3 7.8-3.3 10.7-4.2 3.1-1 7.3-2.1 9.5-2.7 2.3-0.5 8-1.4 12.7-2.2 4.7-0.7 12.8-1.3 17.9-1.3 5 0 9.2-0.3 9.2-0.8 0-0.3-1.9-1.9-4.3-3.3-2.3-1.4-4.6-3.2-5.2-3.6-0.5-0.5-2.5-2.1-4.5-3.6-2-1.5-6.6-5.6-10.3-9.1-3.7-3.4-9.3-9.5-12.5-13.5-3.1-4-8-10.9-10.9-15.4-2.7-4.5-6.5-11.3-8.3-15.3-1.9-4-4.3-9.9-5.4-13.2-1-3.2-2.2-7.1-2.7-8.5-0.4-1.5-1.3-5.2-1.8-8.1-0.6-3.1-1.5-7.3-1.9-9.4-0.5-2-0.9-11-0.9-19.8 0-9.8 0.6-18.9 1.3-23.3 0.7-4 1.7-9 2.2-11.3 0.6-2.3 1.7-6.5 2.7-9.5 1-3 2.9-8.2 4.3-11.7 1.3-3.5 4-9 5.7-12.2 1.7-3.3 5.4-9.3 8.3-13.6 2.9-4.2 7.8-10.7 10.9-14.3 3.3-3.6 8.8-9.2 12.5-12.4 3.7-3.3 10.6-8.5 15.4-11.6 4.7-3.3 12.3-7.5 16.7-9.6 4.4-2.1 9-4.1 9.9-4.5 1-0.4 4.3-1.6 7.3-2.5 2.9-1.1 8.2-2.6 11.7-3.3 3.5-0.9 10.3-2.1 14.9-2.9 4.7-0.7 14.1-1.2 20.9-1.2 6.6 0 14.7 0.4 18 0.8 3.3 0.6 8.3 1.6 11.3 1.9 3 0.6 8.3 1.8 11.8 2.9 3.5 0.8 8.5 2.5 11.2 3.6 2.8 1 8.4 3.4 19.9 8.9l1.9-2.1c1.1-1.1 3.4-3.8 5.2-6.1 1.8-2.2 3.5-4.2 3.7-4.5 0.3-0.3 2.8-3 5.5-6.4 2.7-3.2 5.7-6.6 6.6-7.6 0.8-1 1.6-2.7 1.6-3.6 0-1.1 0.9-4.5 2-7.7 1.2-3.3 3.1-7.7 4.2-9.9 1.2-2.3 3.5-6.6 5.3-9.5 1.7-3.1 4.9-7.6 6.9-10 2.1-2.5 5.5-5.4 7.8-6.6 3.3-1.7 5-2 9.4-1.7zm-11 22.9c-1.8 3-4.5 7.9-5.9 11.2-1.4 3.2-2.3 6-2.1 6.1 0.3 0.1 2.7-1.1 5.2-2.7 2.6-1.5 7.1-4.5 9.7-6.6 2.8-2.1 5.9-5.1 7-6.8 1.1-1.7 2.1-3.9 2.1-5 0-0.9-0.7-2.4-1.5-3.3-1-0.9-2.9-1.6-4.5-1.6-1.4 0-3.6 0.8-4.7 1.8-1 0.9-3.4 4.2-5.3 6.9zm-136.1 51.5c0.3 1.4 1.3 5.1 2.3 8 1 3 3.1 8.1 4.7 11.3 1.5 3.3 3.5 7.3 4.3 8.8l1.7 2.9c8.7-3.6 14.9-5.7 19.4-6.8 4.3-1.2 11.8-2.8 16.2-3.6 5.4-1 13.6-1.6 23.9-1.6h15.9c-6.4-4.2-11.4-6.9-15.4-8.7-4-1.8-10.5-4.5-14.5-5.7-4-1.3-10.9-3.3-15.3-4.4-6.1-1.3-12.6-2-25.9-2.3l-17.8-0.5zm-39.4 8.4c-2.2 0.8-3 1.6-2.9 2.9 0.1 0.9 1.8 6.4 3.7 12.3 1.8 5.9 5.8 15.3 8.9 21 2.8 5.7 7.6 13.8 10.4 18.1 2.8 4.2 8.3 11.6 12.2 16.2 4 4.7 11.4 12.7 16.6 17.5 5.1 5 13 11.8 17.5 15.1 4.4 3.3 11.6 8.3 15.8 11.1 4.3 2.7 12 7.2 17.2 9.8 5.2 2.8 13.3 6.7 18.1 8.6 4.6 2 13 5.2 18.4 6.9 5.6 1.8 14.2 4.2 19.5 5.6 5.3 1.2 13.2 2.8 17.7 3.6 4.4 0.7 8.1 1.4 8.3 1.4 0.1 0 0.6-1.4 1-3 0.5-1.6 1.3-5.6 1.8-8.8 0.6-3.2 1.2-8 1.5-10.6l0.4-4.7c-9.3-1.5-16.1-3.1-20.8-4.2-4.6-1.1-12.1-3.2-16.7-4.7-4.4-1.5-11-3.8-14.5-5.2-3.4-1.4-9.9-4.4-14.4-6.6-4.4-2.2-11.7-6.1-16.3-8.7-4.4-2.6-12.4-7.9-17.6-11.8-5.2-3.9-14-11.6-19.5-17.2-5.5-5.4-12.9-13.8-16.3-18.4-3.5-4.8-7.8-11.1-9.6-14.1-1.8-3-5-8.9-7-13-2-4.3-5-11.8-6.7-16.8-2.3-6.8-3.4-9.1-4.7-9.2-0.9-0.2-5.6 1.1-10.3 2.8-4.7 1.6-9.9 3.5-11.7 4.1zm-22.3 12.7c-2.9 2-8 6.1-11.3 9-3.4 3.1-6.2 6-6.2 6.7 0 0.5 1.2 4.9 2.8 9.6 1.4 4.7 5.5 14.3 9 21.2 3.4 7 9 16.9 12.3 21.9 3.5 4.9 9.5 13.1 13.6 18.1 4 4.8 11.8 13.2 17.2 18.4 5.3 5.3 14 13 19.2 17.1 5.2 4.2 12.9 9.9 17.1 12.6 4.3 3 12.3 7.8 17.6 11 5.6 3 14.1 7.6 19.1 10 4.9 2.3 13.3 5.9 18.5 8 5.3 2.1 12.4 4.7 15.8 5.9 3.5 1.1 9 2.8 12.2 3.9 3.2 0.9 9.3 2.5 13.5 3.6 4.3 0.9 9.3 2.1 11.3 2.4l3.7 0.5c7-12.2 10.1-18.5 11.7-21.7 2-4.6 2.2-6.1 1.3-6.5-0.8-0.4-2.4-0.8-3.7-0.8-1.3 0-4.3-0.4-6.4-0.8-2.1-0.5-8.1-1.9-13.3-3.2-5.2-1.2-13.1-3.4-17.6-4.8-4.5-1.5-13.4-4.8-19.9-7.4-6.5-2.5-16.2-7-21.7-9.9-5.4-2.9-13.6-7.5-18.1-10.2-4.5-2.8-10.7-7.1-14-9.4-3.2-2.4-9.3-7.3-13.6-10.8-4.2-3.5-11.7-10.7-16.6-15.9-5.1-5.2-12-13.2-15.6-18-3.6-4.7-8.8-12.2-11.6-16.7-2.8-4.4-7.1-12.3-9.7-17.6-2.4-5.2-6.1-14.1-7.9-19.7l-3.4-10.1zm101.4 16.7c-3.5 0.8-8 2.1-9.9 2.7-2 0.6-4.8 1.7-6.1 2.2l-2.6 1c4.7 5.8 9 11 12.9 15l7 7.6c8.7-2.9 14.2-4.4 17.6-5 3.5-0.7 11-1.7 16.7-2.1 5.8-0.5 14.5-0.5 19.5-0.1 5 0.5 11.7 1.2 14.9 1.8 3.2 0.6 9.6 2.2 14 3.7 4.6 1.4 8.3 2.4 8.4 2.1 0.1-0.2-1.2-3-2.9-6.1-1.6-3.1-4.6-7.7-6.5-10.2-1.9-2.6-4.7-6.1-6.2-7.9-2.1-2.5-4-3.6-8.1-4.7-3.1-0.8-8.9-2.1-13.2-2.7-4.5-0.8-13.2-1.3-21.7-1.3-7.7 0.1-17 0.7-20.7 1.3-3.7 0.6-9.6 1.8-13.1 2.7zm-142.2 30.7c-2.2 4.4-5.3 11.8-6.7 16.3-1.4 4.4-3.4 11.7-4.4 16.3-0.9 4.4-2 11.7-2.1 16.3l-0.6 8.1c4.6-7.7 9-13.9 12.7-18.9 3.7-5.1 11-13.4 16-18.6l9.2-9.6c-3.8-7.6-6.6-13.8-8.5-18.4-1.9-4.8-3.6-9-3.9-9.4-0.4-0.5-2.2 1.6-4.2 4.4-1.9 3-5.3 9-7.5 13.5zm166.5 6.8c-2.9 0.6-6.1 1.1-6.9 1.3q-1.6 0.5-0.8 1.6c0.4 0.6 4.8 3.9 9.6 7.1 5.1 3.3 12.1 7.6 15.8 9.5 3.7 2 10.2 5.1 14.5 6.9 4.2 1.8 11.5 4.6 16.2 6.2 4.7 1.5 12.5 3.8 17.2 4.9 4.7 1.1 10.4 2.4 12.6 2.8l4.1 0.4c-1-8.8-1.7-13.4-2.2-15.9-0.5-2.4-1.2-5.9-1.6-7.6-0.4-1.9-1.8-3.8-3.4-5.1-1.5-1.1-5.3-3.2-8.7-4.7-3.2-1.4-8-3.3-10.8-4.2-2.7-0.7-7.7-2.1-11.2-2.8-3.5-0.8-12.2-1.5-19.4-1.7-7.3-0.2-14.6-0.2-16.3 0.1-1.7 0.2-5.6 0.7-8.7 1.2zm-154 37c-2.1 2.8-6.1 8.5-9 12.7-2.8 4.3-7.2 12-9.8 17.2l-4.9 9.5c1.8 7 3.4 12.6 5 17.2 1.4 4.3 3.3 9.6 4.2 11.3l1.5 3.1c7.2-14.4 11.4-21.9 14-26.1 2.5-4 6.7-10.2 9.2-13.7 2.6-3.5 7.7-9.8 11.4-14 3.7-4.2 8.3-9.2 10.3-11l3.7-3.2c-3-4-6.7-9.2-10.1-14-3.3-5-6.3-8.9-6.6-8.9-0.3 0-3.8 3.5-7.7 7.5-4 4.1-9 9.8-11.2 12.4zm26.6 34.4c-3.4 4.3-8.3 10.9-10.9 14.9-2.5 4-5.6 8.9-6.7 10.9-1.1 2-3.6 6.6-5.5 10.3-1.9 3.8-4.2 8.7-5.3 11.1l-1.9 4.4c5.3 2.1 8.6 3.4 10.9 4 2.3 0.7 6.4 1.5 9 1.8l5 0.6c9.9-15.6 16.1-24.5 20.3-29.8 4.3-5.3 11.7-13.8 16.6-18.7l8.8-9c-17.1-16.5-22-21.3-22.1-21.2 0 0.1-2.8 3-6 6.6-3.4 3.5-8.9 9.9-12.2 14.1zm23.3 40.7c-2.9 3.7-6.7 8.7-8.2 11-1.6 2.3-2.8 4.7-2.8 5.3 0 0.5 1.7 0.6 4.3 0.3 2.3-0.2 7.2-1.4 10.8-2.2 3.6-1.1 10.1-3.4 14.5-5.3 4.3-1.8 11.3-5.6 15.5-8.4 4.3-2.8 10.2-7.4 13.1-10 3-2.8 5.2-5.2 5-5.4-0.3-0.2-3.3-2.3-6.8-4.6-3.4-2.2-8.3-5.5-10.8-7.3-2.4-1.8-4.9-3.3-5.5-3.3-0.4 0-6 5.2-12.2 11.5-6.3 6.3-13.8 14.7-16.9 18.4zm54.9 3.1c-3.7 3.1-9.2 7.3-12.2 9.3-3 2-8.5 5.1-12.2 7-3.7 1.9-10.1 4.6-14.2 5.9-4.1 1.5-10.7 3.4-14.5 4.2-5.1 1.2-11.2 1.5-23 1.6h-16c3 3.3 7.2 6.9 11.2 10.2 4 3.2 9.6 7.2 12.5 9 4.5 2.6 6 3 11.3 3 3.4 0 9.7-0.7 14.2-1.2 4.5-0.8 10.1-1.7 12.5-2.3 2.3-0.6 7.4-2.1 11.2-3.4 3.8-1.3 10.8-4.2 15.6-6.5 4.7-2.3 11.6-6.2 15.3-8.7 3.7-2.4 9.7-6.7 13.2-9.6 3.5-2.8 8.3-7.2 10.8-9.8l4.5-4.6c-4.9-1.6-11.4-4.7-17.8-7.9-6.3-3.1-11.6-5.7-11.8-5.7-0.2 0-1.1 0.9-2.1 1.9-0.9 1.1-4.8 4.5-8.5 7.6zm32.6 30.5c-3.7 3-10.1 7.7-14 10.2-4 2.6-10.1 6.2-13.6 7.9-3.5 1.7-10.2 4.6-15 6.4-4.6 1.7-11 3.8-14 4.5-2.9 0.7-6.5 1.6-8.1 2l-2.7 0.7c4.8 1 10.3 2 14.9 2.8 5.4 1 13.2 1.6 20.4 1.6 9.5 0 12.8-0.4 17.6-2 3.2-1.1 10.1-4.1 15.3-6.9 5.3-2.7 12.8-7.2 16.8-10.1 4-2.8 12.2-10.1 18.3-16.2 6-6 11-11.5 10.9-12-0.2-0.6-5.8-2.8-12.5-5-6.7-2.2-12.4-4-12.6-4-0.3 0-3.7 3.3-7.7 7.4-4 3.9-10.3 9.8-14 12.7zm57-1c-0.3 0.1-3 3-6 6-3 3.1-5 5.7-4.5 5.7 0.5 0 5.1-4 10.2-8.8 6.6-6.3 9-9 8.2-9.6-0.7-0.4-1.6-0.6-1.7-0.6-0.4 0-1.9 1.5-3.3 3.4-1.3 1.9-2.6 3.6-2.9 3.9zm4.3 18.3c-3.2 2.7-8.6 6.8-12.1 9.1-3.5 2.2-9.9 6.1-14.5 8.4-4.4 2.3-13.1 5.9-19.4 8l-11.3 3.7c11.2 1.7 18.7 2.5 23.9 2.9 5.3 0.5 15.5 1.1 22.7 1.5 7.8 0.3 18.6 0.1 26.6-0.5 7.5-0.5 16.5-1.4 19.9-1.9 3.6-0.5 10.9-2 16.3-3.3 5.4-1.4 12.8-3.9 16.2-5.6 4.2-2.1 7.1-4.3 8.5-6.4 1.6-2.4 1.9-3.8 1.6-6.3-0.3-1.7-1.3-4-2.1-4.8-0.9-1.1-4.1-2.9-7.1-4.2-2.9-1.3-7.9-2.9-10.8-3.5-3-0.6-8.9-1.5-13.1-1.9-4.2-0.6-12.1-0.9-17.7-0.8-5.4 0.1-12.5 0.3-15.8 0.5-5.6 0.3-6.1 0.6-11.8 5.1z"/>
		<path id="thelo" class="s0" d="m539.7 377h40.3v-55.3h-26.5c-25.1 0-36.8-12.1-36.8-37.6v-75h60.3v-52h-60.3v-57h-49.4l-3.8 28.5c-3.4 22.6-9.6 28.5-33.5 28.5h-19.7v52h42.7v84.6c0 53.5 31 83.3 86.7 83.3zm47.8 0h63.6v-115.6c0-34.7 19.4-55.7 48.7-55.7 27.2 0 43.6 18.4 43.6 50.7v120.6h63.6v-126.9c0-61.2-34.3-98.9-91.3-98.9-24.8 0-47.8 7.6-64.6 22.7v-106.9h-63.6zm341 5.9c54 0 96.7-27.6 116.1-74.2h-64.6c-10.4 14.7-29.3 23.1-50.3 23.1-28.8 0-51.5-16.4-57.4-46.6h176.4c3.8-80.4-44-133.9-119.4-133.9-71.2 0-120.2 47.2-120.2 115.6 0 68.7 48.5 116 119.4 116zm-55.7-137.8c7.1-26.9 28.9-43.2 56.9-43.2 29.4 0 50.3 16.3 57.5 43.2zm181.7 131.9h63.7v-310h-63.7zm193.6 5.9c72.9 0 123.1-47.4 123.1-116.1 0-68.2-50.2-115.6-123.1-115.6-73.4 0-123.6 47.4-123.6 115.6 0 68.7 50.2 116.1 123.6 116.1zm-60.8-116.1c0-35.9 25.2-61.1 60.8-61.1 35.6 0 60.3 25.2 60.3 61.1 0 36.1-24.7 61.2-60.3 61.2-35.6 0-60.8-25.1-60.8-61.2z"/>
	</g>
</svg>