<svg version="1.2" xmlns="http://www.w3.org/2000/svg" viewBox="0 0 800 550" width="800" height="550">
	<title>geomprob</title>
	<style>
		.s0 { fill: #000000 } 
	</style>
	<path id="Background" fill-rule="evenodd" class="s0" d="m388.6 80l6 4-266.7 396.4-6-4.1z"/>
	<path id="Shape 1" fill-rule="evenodd" class="s0" d="m122.8 480.2l0.1-7.2 547.6 8.5-0.1 7.3z"/>
	<path id="Shape 2" fill-rule="evenodd" class="s0" d="m388.7 89.8l5.9-4.2 278.1 397.5-6 4.1z"/>
	<path id="A" class="s0" aria-label="A"  d="m367.3 65.4l-0.8 0.8h-4.4v2.8h16.6v-2.8h-6.2l-0.8-0.8c2.3-5.5 4.1-9.9 5.8-13.7h21.6l5.7 13.7-0.8 0.8h-6.3v2.8h21.2v-2.8h-4.5l-0.8-0.8-22.5-51.8h-2c-11.6 26.6-12.7 29.2-21.8 51.8zm12.1-17.8v-0.8c2.7-6.4 4.9-12 8.2-20.8h0.8l8.7 20.9v0.7z"/>
	<path id="B" class="s0" aria-label="B"  d="m61.7 457.2h6.3l0.8 0.8v47.4l-0.8 0.8h-6.3v2.8h25c12.1 0 20.4-5.6 20.4-15.1 0-8-6-11.5-12.4-13.3v-0.8c4.9-0.9 10.7-4.4 10.7-11.3 0-9.5-8.2-14.1-20.3-14.1h-23.4zm15.3 1.2h6.9c7.2 0 12.1 2.4 12.1 10.1 0 7.6-4.9 10.3-12.1 10.3h-6.9zm8.5 24.3c7.3 0 12.1 3.5 12.1 11.2 0 7.6-4.8 11-12.1 11h-8.5v-22.2z"/>
	<path id="C" class="s0" aria-label="C"  d="m737 507.6l-1.9-2.1c-1.7 2.9-5.9 10.3-18.1 10.3-14.2 0-20.4-11.9-20.4-24.8 0-13.1 6.8-24.2 19.4-24.2 9.7 0 15.6 6.5 15.6 14.4v2.4h2.9v-19.2h-2.9v3.2h-0.8c-0.4-0.2-5.6-4-15.5-4-15.7 0-28.2 11.3-28.2 27.8 0 16.7 12.1 28.4 27.4 28.4 14.8 0 20.3-9.1 22.5-12.2z"/>
</svg>